<?xml version="1.0" encoding="UTF-8" standalone="no"?>
<svg
   xmlns:dc="http://purl.org/dc/elements/1.1/"
   xmlns:cc="http://creativecommons.org/ns#"
   xmlns:rdf="http://www.w3.org/1999/02/22-rdf-syntax-ns#"
   xmlns:svg="http://www.w3.org/2000/svg"
   xmlns="http://www.w3.org/2000/svg"
   xmlns:sodipodi="http://sodipodi.sourceforge.net/DTD/sodipodi-0.dtd"
   xmlns:inkscape="http://www.inkscape.org/namespaces/inkscape"
   inkscape:export-ydpi="96"
   inkscape:export-xdpi="96"
   inkscape:export-filename="G:\My Drive\images\PNG\wc3bot.png"
   sodipodi:docname="wc3bot.svg"
   inkscape:version="1.0 (4035a4fb49, 2020-05-01)"
   id="svg8"
   version="1.1"
   viewBox="0 0 264.58335 264.58334"
   height="264.58334mm"
   width="264.58334mm">
  <defs
     id="defs2" />
  <sodipodi:namedview
     inkscape:window-maximized="1"
     inkscape:window-y="-11"
     inkscape:window-x="-11"
     inkscape:window-height="1360"
     inkscape:window-width="2560"
     inkscape:snap-global="false"
     showborder="true"
     showgrid="false"
     inkscape:document-rotation="0"
     inkscape:current-layer="layer1"
     inkscape:document-units="mm"
     inkscape:cy="625.1335"
     inkscape:cx="674.57843"
     inkscape:zoom="0.7"
     inkscape:pageshadow="2"
     inkscape:pageopacity="0.0"
     borderopacity="1.0"
     bordercolor="#666666"
     pagecolor="#ffffff"
     id="base" />
  <metadata
     id="metadata5">
    <rdf:RDF>
      <cc:Work
         rdf:about="">
        <dc:format>image/svg+xml</dc:format>
        <dc:type
           rdf:resource="http://purl.org/dc/dcmitype/StillImage" />
        <dc:title></dc:title>
      </cc:Work>
    </rdf:RDF>
  </metadata>
  <g
     transform="translate(168.66205,189.03319)"
     style="display:inline"
     id="layer1"
     inkscape:groupmode="layer"
     inkscape:label="Layer 1">
    <path
       style="fill:#e9c6af;fill-opacity:1;stroke-width:0.883314;stroke-linecap:round;stroke-linejoin:round"
       d="m -121.54703,-66.079813 4.038,78.993496 152.182356,-0.252381 -2.019006,-102.21202 z"
       id="path853" />
    <path
       d="m -116.88428,-69.585882 3.39075,25.340755 50.860068,10.529029 -6.959892,-26.05465 z"
       style="fill:#404040;fill-opacity:1;stroke-width:0.883314;stroke-linecap:round;stroke-linejoin:round"
       id="path952" />
    <path
       style="fill:#905228;fill-opacity:1;stroke-width:0.883314;stroke-linecap:round;stroke-linejoin:round"
       d="m -112.85976,6.3992977 c 0,0 69.655608,-17.1615217 104.9881615,-13.6282673 35.3325435,3.533254 41.1371795,9.8426319 46.6894435,18.4234006 5.552254,8.580765 11.356886,38.613433 11.356886,38.613433 l -23.975662,4.290378 -40.380051,-35.33255 35.837302,14.637772 -2.019009,21.956654 -23.9756615,3.785633 -2.0189999,-30.537417 -1.5142481,42.651434 -21.7042835,1.261877 -3.280882,-31.546917 1.009505,28.518411 -22.461407,1.261878 -3.28088,-27.761293 4.290381,30.537424 -25.742288,1.009502 -5.804636,-30.28505 2.523756,30.537417 -26.499417,0.757126 -13.62827,-59.812953 z"
       id="path851" />
    <path
       id="path959"
       d="m -42.467951,-59.056972 65.315021,-14.098051 2.319933,27.482276 -64.779651,13.027312 z"
       style="fill:#404040;fill-opacity:1;stroke-width:0.883314;stroke-linecap:round;stroke-linejoin:round" />
    <path
       sodipodi:nodetypes="ccccc"
       id="path906"
       d="m -68.325252,-35.218831 32.368732,0.508415 -2.559014,22.702027 -25.868476,-1.703534 z"
       style="fill:#404040;fill-opacity:1;stroke-width:0.883314;stroke-linecap:round;stroke-linejoin:round" />
    <path
       id="path927"
       d="m 21.776333,-17.298189 1.319266,38.603351 18.489382,-1.573666 -1.427646,-56.481427 z"
       style="fill:#000000;fill-opacity:1;stroke-width:0.883314;stroke-linecap:round;stroke-linejoin:round" />
    <path
       id="path929"
       d="m -104.03538,-11.587586 7.316705,31.94368 -24.448515,-3.033757 z"
       style="fill:#000000;fill-opacity:1;stroke-width:0.883314;stroke-linecap:round;stroke-linejoin:round" />
    <path
       style="fill:#9c1616;fill-opacity:1;stroke-width:0.505043;stroke-linecap:round;stroke-linejoin:round"
       d="m -28.137198,-55.636172 37.3443458,-8.060666 1.3264362,15.713195 -37.038244,7.448461 z"
       id="path961" />
    <path
       style="fill:#d7c68c;fill-opacity:1;stroke-width:3.05907;stroke-linecap:round;stroke-linejoin:round"
       d="m -139.33642,-130.19795 8.13192,31.889678 c 0,0 4.52024,-1.896758 7.73889,-4.796728 3.21866,-2.89994 4.89584,-6.48593 4.89584,-6.48593 z"
       id="path1146" />
    <path
       style="fill:#d7c68c;fill-opacity:1;stroke-width:3.05907;stroke-linecap:round;stroke-linejoin:round"
       d="m 68.404512,-129.28477 -8.131923,31.889677 c 0,0 -4.520245,-1.896754 -7.738894,-4.796727 -3.218655,-2.89994 -4.895827,-6.48593 -4.895827,-6.48593 z"
       id="path1154" />
    <path
       d="m -36.139882,-150.45118 c -3.72336,-0.002 -7.352205,0.18055 -10.830254,0.58278 -37.099175,4.29038 -71.926924,21.45192 -71.926924,21.45192 l -7.06652,23.47079 -7.0665,6.309484 -11.35697,116.597412 45.644205,0.586574 -10.059255,-79.580009 35.080152,7.318737 11.104564,38.865805 22.966158,1.514404 6.81411,-38.108781 49.465572,-11.356792 7.480386,82.925214 47.537465,0.610909 -11.104562,-121.140097 -6.309316,-4.79509 c 0,0 -3.7856,-21.7043 -6.814112,-24.98518 -2.744579,-2.9733 -47.5657116,-20.24843 -83.558199,-20.26808 z"
       style="fill:#808080;fill-opacity:1;stroke-width:0.883314;stroke-linecap:round;stroke-linejoin:round"
       id="path835" />
    <path
       id="path968"
       d="m -103.9024,-59.509079 1.64044,12.618768 26.120845,5.804632 -2.902316,-13.754456 z"
       style="fill:#ca0000;fill-opacity:0.66323;stroke-width:0.883314;stroke-linecap:round;stroke-linejoin:round" />
    <path
       d="m -36.139882,-150.45118 c -3.72336,-0.002 -7.352205,0.18055 -10.830254,0.58278 -15.211713,1.75918 -30.039424,5.68244 -42.243099,9.6992 7.622949,4.31324 20.111663,9.26767 38.457445,10.49073 25.694536,1.71297 55.8287088,-7.19306 69.097388,-11.677 -16.0850452,-4.71949 -36.396864,-9.08584 -54.48148,-9.09571 z"
       style="fill:#666666;fill-opacity:1;stroke-width:0.883314;stroke-linecap:round;stroke-linejoin:round"
       id="path901" />
    <path
       id="path1108"
       d="m -38.457783,-146.34187 0.913183,-42.69132 18.263666,46.80065 z"
       style="fill:#d7c68c;fill-opacity:1;stroke-width:2.26001;stroke-linecap:round;stroke-linejoin:round" />
    <path
       d="m -36.139882,-150.45118 c -3.72336,-0.002 -7.352205,0.18055 -10.830254,0.58278 -13.832466,1.59967 -27.347881,4.98877 -38.861319,8.6104 3.913333,0.78505 8.498936,1.62357 13.876134,2.49416 26.499414,4.29039 39.875307,3.78561 54.765453,1.51423 5.611303,-0.85596 13.7672607,-4.07769 21.7531498,-7.76022 -13.0781415,-3.09864 -27.4851068,-5.43414 -40.7031638,-5.44135 z"
       style="fill:#4e4e4e;fill-opacity:1;stroke-width:0.883314;stroke-linecap:round;stroke-linejoin:round"
       id="path896" />
    <path
       d="m -105.66012,-36.176091 1.51819,54.654522 5.399085,0.06935 z"
       style="fill:#b1b1b1;fill-opacity:1;stroke-width:0.883314;stroke-linecap:round;stroke-linejoin:round"
       id="path913" />
    <path
       d="m 17.946696,-48.185018 6.162146,68.311376 8.115967,0.104382 z"
       style="fill:#b1b1b1;fill-opacity:1;stroke-width:0.883314;stroke-linecap:round;stroke-linejoin:round"
       id="path918" />
    <path
       d="m -37.243678,-26.797956 -4.985548,13.294731 2.578,0.169942 z"
       style="fill:#b1b1b1;fill-opacity:1;stroke-width:0.883314;stroke-linecap:round;stroke-linejoin:round"
       id="path931" />
    <path
       d="m -65.05288,-23.372009 2.435496,8.524322 2.412724,0.159066 z"
       style="fill:#b1b1b1;fill-opacity:1;stroke-width:0.883314;stroke-linecap:round;stroke-linejoin:round"
       id="path936" />
    <path
       id="path948"
       d="M -80.657605,27.672803 -86.011295,11.433275 -1.6014478,-0.43406221 -1.690683,13.128609 2.5922764,24.46059 -81.549886,43.46619 Z"
       style="fill:#b3b3b3;fill-opacity:1;stroke-width:0.883314;stroke-linecap:round;stroke-linejoin:round" />
    <path
       id="path941"
       d="M -84.940557,12.147108 -2.4937276,0.36898243 -2.315271,13.396298 1.7892216,24.103677 -80.657605,42.127765 -79.765322,27.137436 Z"
       style="fill:#eeeeee;fill-opacity:1;stroke-width:0.883314;stroke-linecap:round;stroke-linejoin:round" />
    <path
       d="m -11.684167,12.147041 -10.439837,5.264514 -18.113281,-0.535341 -12.670375,5.442909 -15.436425,0.26775 -11.477386,4.388276 0.05607,0.162344 -0.124906,2.098215 12.081559,-5.845912 15.793373,0.26775 11.956652,-5.97824 18.737811,0.802923 10.082888,-5.621294 9.2822129,1.473341 -0.3595356,-0.938009 -0.00846,-0.615731 z"
       style="fill:#b3b3b3;fill-opacity:1;stroke-width:0.883314;stroke-linecap:round;stroke-linejoin:round"
       id="path943" />
    <path
       d="m 53.397079,-109.64295 -32.85686,6.59017 -67.384068,6.940228 c 0,0 -60.810541,-9.471708 -78.167401,-11.995988 l -0.95233,3.16285 -7.0665,6.309484 -0.10507,1.077918 2.25021,0.562423 92.243141,16.656847 90.855202,-17.792388 6.584998,-3.596394 -4.565972,-3.47012 c 0,0 -0.318973,-1.81751 -0.83535,-4.44503 z"
       style="fill:#515151;fill-opacity:1;stroke-width:0.883314;stroke-linecap:round;stroke-linejoin:round"
       id="path979" />
    <path
       d="m 56.120857,-103.7627 c -17.76753,4.117911 -87.032317,19.916826 -99.302577,18.829588 -13.297594,-1.178267 -80.27333,-13.956759 -87.92439,-15.420898 l -1.92397,1.717804 -0.4163,4.273547 c 19.78803,3.804357 81.190707,15.521066 92.406006,16.567827 11.81512,1.102745 84.863349,-15.712237 101.850903,-19.675124 l -0.268784,-2.932874 z"
       style="fill:#636363;fill-opacity:1;stroke-width:0.883314;stroke-linecap:round;stroke-linejoin:round"
       id="path974" />
    <path
       d="m 53.1207,-111.02779 c -25.564726,3.38922 -88.654447,11.685532 -95.295754,11.886784 -7.262142,0.220065 -67.072206,-8.574394 -82.275326,-10.830944 l -1.50336,4.99383 c 23.13318,3.56121 83.106681,12.699978 90.845197,12.903624 7.61007,0.200265 65.781405,-9.113434 89.534029,-12.976774 l -0.193057,-0.14665 c 0,0 -0.431737,-2.46211 -1.111729,-5.82987 z"
       style="fill:#636363;fill-opacity:1;stroke-width:0.883314;stroke-linecap:round;stroke-linejoin:round"
       id="path891" />
    <path
       d="m -137.86588,-48.988625 -6.52117,66.949831 9.65607,0.124044 c 0.34583,-13.6100188 -0.25029,-34.664042 -3.1349,-67.073875 z"
       style="fill:#515151;fill-opacity:1;stroke-width:0.883314;stroke-linecap:round;stroke-linejoin:round"
       id="path993" />
    <path
       d="m 63.181846,-71.601457 c -3.892949,42.939596 -3.71126,72.45599368 -2.220527,92.201395 l 10.684988,0.137329 z"
       style="fill:#656565;fill-opacity:1;stroke-width:0.883314;stroke-linecap:round;stroke-linejoin:round"
       id="path1017" />
    <path
       id="path1114"
       d="m -45.533986,-169.23008 -1.807619,31.23618 c 0,0 4.641725,-0.41802 8.392705,-2.1196 3.750981,-1.70157 6.302579,-4.46833 6.302579,-4.46833 z"
       style="fill:#e6e6e6;fill-opacity:1;stroke-width:2.90832;stroke-linecap:round;stroke-linejoin:round" />
    <path
       style="fill:#e4d9b2;fill-opacity:1;stroke-width:2.90832;stroke-linecap:round;stroke-linejoin:round"
       d="m -45.533986,-169.23008 -1.807619,31.23618 c 0,0 4.641725,-0.41802 8.392705,-2.1196 3.750981,-1.70157 6.302579,-4.46833 6.302579,-4.46833 z"
       id="path1116" />
    <path
       id="path1124"
       d="m -60.117766,-148.00503 8.131921,31.88968 c 0,0 4.520246,-1.89676 7.738895,-4.79672 3.218655,-2.89995 4.895827,-6.48593 4.895827,-6.48593 z"
       style="fill:#e8dfbe;fill-opacity:1;stroke-width:3.05907;stroke-linecap:round;stroke-linejoin:round" />
  </g>
</svg>
