<?xml version="1.0" encoding="UTF-8" standalone="no"?>
<svg
   xmlns:dc="http://purl.org/dc/elements/1.1/"
   xmlns:cc="http://creativecommons.org/ns#"
   xmlns:rdf="http://www.w3.org/1999/02/22-rdf-syntax-ns#"
   xmlns:svg="http://www.w3.org/2000/svg"
   xmlns="http://www.w3.org/2000/svg"
   xmlns:sodipodi="http://sodipodi.sourceforge.net/DTD/sodipodi-0.dtd"
   xmlns:inkscape="http://www.inkscape.org/namespaces/inkscape"
   inkscape:export-ydpi="96"
   inkscape:export-xdpi="96"
   inkscape:export-filename="G:\My Drive\images\PNG\wc3bot.png"
   sodipodi:docname="wc3bot.svg"
   inkscape:version="1.0 (4035a4fb49, 2020-05-01)"
   id="svg8"
   version="1.1"
   viewBox="0 0 264.58335 264.58334"
   height="264.58334mm"
   width="264.58334mm">
  <defs
     id="defs2" />
  <sodipodi:namedview
     showguides="false"
     inkscape:window-maximized="1"
     inkscape:window-y="-11"
     inkscape:window-x="-11"
     inkscape:window-height="1360"
     inkscape:window-width="2560"
     inkscape:snap-global="true"
     showborder="true"
     showgrid="false"
     inkscape:document-rotation="0"
     inkscape:current-layer="layer1"
     inkscape:document-units="mm"
     inkscape:cy="452.11091"
     inkscape:cx="-154.54564"
     inkscape:zoom="0.70710678"
     inkscape:pageshadow="2"
     inkscape:pageopacity="0.0"
     borderopacity="1.0"
     bordercolor="#666666"
     pagecolor="#ffffff"
     id="base" />
  <metadata
     id="metadata5">
    <rdf:RDF>
      <cc:Work
         rdf:about="">
        <dc:format>image/svg+xml</dc:format>
        <dc:type
           rdf:resource="http://purl.org/dc/dcmitype/StillImage" />
        <dc:title />
      </cc:Work>
    </rdf:RDF>
  </metadata>
  <g
     transform="translate(168.66205,189.03319)"
     style="display:inline"
     id="layer1"
     inkscape:groupmode="layer"
     inkscape:label="Layer 1">
    <path
       style="fill:#e9c6af;fill-opacity:1;stroke-width:0.883314;stroke-linecap:round;stroke-linejoin:round"
       d="m -121.54703,-66.079813 4.038,78.993496 152.182356,-0.252381 -2.019006,-102.21202 z"
       id="path853" />
    <path
       style="fill:#e2b598;fill-opacity:1;stroke-width:2.64583;stroke-linecap:round;stroke-linejoin:round"
       d="m -39.205208,-35.007894 60.098215,-13.040179 1.700892,7.937499 -63.122023,11.90625 z"
       id="path937" />
    <path
       style="fill:#e2b598;fill-opacity:1;stroke-width:2.64583;stroke-linecap:round;stroke-linejoin:round"
       d="m -108.94181,-44.646286 42.900294,7.559522 0.566965,7.370537 -48.191969,-7.559524 z"
       id="path934" />
    <path
       d="m -116.88428,-69.585882 3.39075,25.340755 50.860068,10.529029 -6.959892,-26.05465 z"
       style="fill:#404040;fill-opacity:1;stroke-width:0.883314;stroke-linecap:round;stroke-linejoin:round"
       id="path952" />
    <path
       style="fill:#905228;fill-opacity:1;stroke-width:0.883314;stroke-linecap:round;stroke-linejoin:round"
       d="m -112.85976,6.3992977 c 0,0 69.655608,-17.1615217 104.9881615,-13.6282673 35.3325435,3.533254 41.1371795,9.8426319 46.6894435,18.4234006 5.552254,8.580765 11.356886,38.613433 11.356886,38.613433 l -23.975662,4.290378 -40.380051,-35.33255 35.837302,14.637772 -2.019009,21.956654 -23.9756615,3.785633 -2.0189999,-30.537417 -1.5142481,42.651434 -21.7042835,1.261877 -3.280882,-31.546917 1.009505,28.518411 -22.461407,1.261878 -3.28088,-27.761293 4.290381,30.537424 -25.742288,1.009502 -5.804636,-30.28505 2.523756,30.537417 -26.499417,0.757126 -13.62827,-59.812953 z"
       id="path851" />
    <path
       id="path924"
       style="fill:#854c25;fill-opacity:1;stroke-width:9.99999;stroke-linecap:round;stroke-linejoin:round"
       d="M 799.31055 791.98828 L 187.18359 828.90039 L 226.16797 1000 L 326.32422 997.13867 L 316.78516 881.7207 L 338.72266 996.18555 L 436.01758 992.36914 L 434.52539 981.74609 L 517.0957 977.10742 L 513.2793 869.32031 L 525.67969 988.55273 L 607.71289 983.78516 L 613.43555 822.58203 L 621.06641 938 L 711.68359 923.69141 L 713.93555 899.19336 L 736.48242 918.92188 L 827.09961 902.70703 C 827.09961 902.70703 814.52483 837.6698 799.31055 791.98828 z "
       transform="matrix(0.26458333,0,0,0.26458333,-168.66205,-189.03319)" />
    <path
       id="path942"
       style="fill:#643a1c;fill-opacity:1;stroke-width:9.99999;stroke-linecap:round;stroke-linejoin:round"
       d="M 266.62891 726.00977 C 232.60907 733.30132 210.90625 738.64258 210.90625 738.64258 L 174.66016 773.93555 L 178.61328 791.28906 L 287.14258 804.28516 L 266.62891 726.00977 z "
       transform="matrix(0.26458333,0,0,0.26458333,-168.66205,-189.03319)" />
    <path
       id="path959"
       d="m -42.467951,-59.056972 65.315021,-14.098051 2.319933,27.482276 -64.779651,13.027312 z"
       style="fill:#404040;fill-opacity:1;stroke-width:0.883314;stroke-linecap:round;stroke-linejoin:round" />
    <path
       style="fill:#e2b598;fill-opacity:1;stroke-width:2.64583;stroke-linecap:round;stroke-linejoin:round"
       d="m -59.426933,-11.951348 23.8125,1.700895 -1.133928,-21.355656 -22.867559,14.363094 z"
       id="path939" />
    <path
       sodipodi:nodetypes="ccccc"
       id="path906"
       d="m -68.325252,-35.218831 32.368732,0.508415 -2.559014,22.702027 -25.868476,-1.703534 z"
       style="fill:#404040;fill-opacity:1;stroke-width:0.883314;stroke-linecap:round;stroke-linejoin:round" />
    <path
       id="path958"
       style="fill:#643a1c;fill-opacity:1;stroke-width:9.99999;stroke-linecap:round;stroke-linejoin:round"
       d="M 769.71289 737.40625 L 733.21484 764.64258 L 730 809.28516 L 806.48047 815.44922 C 799.66512 791.38838 791.85897 768.63965 784.17578 756.76562 C 779.74809 749.92283 775.26484 743.46677 769.71289 737.40625 z "
       transform="matrix(0.26458333,0,0,0.26458333,-168.66205,-189.03319)" />
    <path
       id="path927"
       d="m 21.776333,-17.298189 1.319266,38.603351 18.489382,-1.573666 -1.427646,-56.481427 z"
       style="fill:#000000;fill-opacity:1;stroke-width:0.883314;stroke-linecap:round;stroke-linejoin:round" />
    <path
       id="path929"
       d="m -104.03538,-11.587586 7.316705,31.94368 -24.448515,-3.033757 z"
       style="fill:#000000;fill-opacity:1;stroke-width:0.883314;stroke-linecap:round;stroke-linejoin:round" />
    <path
       style="fill:#9c1616;fill-opacity:1;stroke-width:0.505043;stroke-linecap:round;stroke-linejoin:round"
       d="m -28.137198,-55.636172 37.3443458,-8.060666 1.3264362,15.713195 -37.038244,7.448461 z"
       id="path961" />
    <path
       style="fill:#d7c68c;fill-opacity:1;stroke-width:3.05907;stroke-linecap:round;stroke-linejoin:round"
       d="m -139.33642,-130.19795 8.13192,31.889678 c 0,0 4.52024,-1.896758 7.73889,-4.796728 3.21866,-2.89994 4.89584,-6.48593 4.89584,-6.48593 z"
       id="path1146" />
    <path
       style="fill:#d7c68c;fill-opacity:1;stroke-width:3.05907;stroke-linecap:round;stroke-linejoin:round"
       d="m 68.404512,-129.28477 -8.131923,31.889677 c 0,0 -4.520245,-1.896754 -7.738894,-4.796727 -3.218655,-2.89994 -4.895827,-6.48593 -4.895827,-6.48593 z"
       id="path1154" />
    <path
       style="fill:#e2b598;fill-opacity:1;stroke-width:2.64583;stroke-linecap:round;stroke-linejoin:round"
       d="M -98.116485,3.0568899 -106.38825,-33.148241 -120.68717,9.681702 Z"
       id="path963" />
    <path
       d="m -36.139882,-150.45118 c -3.72336,-0.002 -7.352205,0.18055 -10.830254,0.58278 -37.099175,4.29038 -71.926924,21.45192 -71.926924,21.45192 l -7.06652,23.47079 -7.0665,6.309484 -11.35697,116.597412 45.644205,0.586574 -10.059255,-79.580009 35.080152,7.318737 11.104564,38.865805 22.966158,1.514404 6.81411,-38.108781 49.465572,-11.356792 7.480386,82.925214 47.537465,0.610909 -11.104562,-121.140097 -6.309316,-4.79509 c 0,0 -3.7856,-21.7043 -6.814112,-24.98518 -2.744579,-2.9733 -47.5657116,-20.24843 -83.558199,-20.26808 z"
       style="fill:#808080;fill-opacity:1;stroke-width:0.883314;stroke-linecap:round;stroke-linejoin:round"
       id="path835" />
    <path
       id="path968"
       d="m -103.9024,-59.509079 1.64044,12.618768 26.120845,5.804632 -2.902316,-13.754456 z"
       style="fill:#ca0000;fill-opacity:0.66323;stroke-width:0.883314;stroke-linecap:round;stroke-linejoin:round" />
    <path
       id="path1108"
       style="fill:#d7c68c;fill-opacity:1;stroke-width:8.54177;stroke-linecap:round;stroke-linejoin:round"
       d="M 495.5625 0 L 492.44141 145.91016 C 495.23721 145.85433 498.04475 145.82075 500.87109 145.82227 C 518.04701 145.83163 535.75788 146.90069 553.60938 148.75 L 495.5625 0 z "
       transform="matrix(0.26458333,0,0,0.26458333,-168.66205,-189.03319)" />
    <path
       style="fill:#595959;fill-opacity:1;stroke-width:3.05907;stroke-linecap:round;stroke-linejoin:round"
       d="m -61.921835,-138.51696 9.93599,22.40161 c 0,0 4.520246,-1.89676 7.738895,-4.79672 3.218655,-2.89995 4.895827,-6.48593 4.895827,-6.48593 z"
       id="path969"
       sodipodi:nodetypes="ccscc" />
    <path
       d="m -36.139882,-150.45118 c -3.72336,-0.002 -7.352205,0.18055 -10.830254,0.58278 -15.211713,1.75918 -30.039424,5.68244 -42.243099,9.6992 7.622949,4.31324 20.111663,9.26767 38.457445,10.49073 25.694536,1.71297 55.8287088,-7.19306 69.097388,-11.677 -16.0850452,-4.71949 -36.396864,-9.08584 -54.48148,-9.09571 z"
       style="fill:#666666;fill-opacity:0.69;stroke-width:0.883314;stroke-linecap:round;stroke-linejoin:round"
       id="path901" />
    <path
       id="path975"
       style="fill:#595959;fill-opacity:1;stroke-width:10.9921;stroke-linecap:round;stroke-linejoin:round"
       d="M 492.31641 145.91406 C 481.23528 146.13883 470.40343 146.81307 459.9375 148.02344 C 455.84701 148.49649 451.76808 149.02704 447.69531 149.58008 L 458.5332 192.9043 C 458.5332 192.9043 476.07697 191.32375 490.25391 184.89258 C 504.43084 178.46145 514.07617 168.00586 514.07617 168.00586 L 492.31641 145.91406 z "
       transform="matrix(0.26458333,0,0,0.26458333,-168.66205,-189.03319)" />
    <path
       d="m -36.139882,-150.45118 c -3.72336,-0.002 -7.352205,0.18055 -10.830254,0.58278 -13.832466,1.59967 -27.347881,4.98877 -38.861319,8.6104 3.913333,0.78505 8.498936,1.62357 13.876134,2.49416 26.499414,4.29039 39.875307,3.78561 54.765453,1.51423 5.611303,-0.85596 13.7672607,-4.07769 21.7531498,-7.76022 -13.0781415,-3.09864 -27.4851068,-5.43414 -40.7031638,-5.44135 z"
       style="fill:#4e4e4e;fill-opacity:0.58762884;stroke-width:0.883314;stroke-linecap:round;stroke-linejoin:round"
       id="path896" />
    <path
       d="m -105.66012,-36.176091 1.51819,54.654522 5.399085,0.06935 z"
       style="fill:#b1b1b1;fill-opacity:1;stroke-width:0.883314;stroke-linecap:round;stroke-linejoin:round"
       id="path913" />
    <path
       transform="matrix(0.26458333,0,0,0.26458333,-168.66205,-189.03319)"
       d="M 185.67383 237.11914 L 161.38086 317.81055 L 134.67188 341.6582 L 91.748047 782.3418 L 264.26172 784.55859 L 226.24219 483.7832 L 230.42188 484.6543 L 185.67383 237.11914 z "
       style="fill:#595959;fill-opacity:0.67354;stroke-width:9.99999;stroke-linecap:round;stroke-linejoin:round"
       id="path960" />
    <path
       d="m 17.946696,-48.185018 6.162146,68.311376 8.115967,0.104382 z"
       style="fill:#b1b1b1;fill-opacity:1;stroke-width:0.883314;stroke-linecap:round;stroke-linejoin:round"
       id="path918" />
    <path
       d="m -37.243678,-26.797956 -4.985548,13.294731 2.578,0.169942 z"
       style="fill:#b1b1b1;fill-opacity:1;stroke-width:0.883314;stroke-linecap:round;stroke-linejoin:round"
       id="path931" />
    <path
       d="m -65.05288,-23.372009 2.435496,8.524322 2.412724,0.159066 z"
       style="fill:#b1b1b1;fill-opacity:1;stroke-width:0.883314;stroke-linecap:round;stroke-linejoin:round"
       id="path936" />
    <path
       id="path948"
       d="M -80.657605,27.672803 -86.011295,11.433275 -1.6014478,-0.43406221 -1.690683,13.128609 2.5922764,24.46059 -81.549886,43.46619 Z"
       style="fill:#b3b3b3;fill-opacity:1;stroke-width:0.883314;stroke-linecap:round;stroke-linejoin:round" />
    <path
       id="path941"
       d="M -84.940557,12.147108 -2.4937276,0.36898243 -2.315271,13.396298 1.7892216,24.103677 -80.657605,42.127765 -79.765322,27.137436 Z"
       style="fill:#eeeeee;fill-opacity:1;stroke-width:0.883314;stroke-linecap:round;stroke-linejoin:round" />
    <path
       d="m -11.684167,12.147041 -10.439837,5.264514 -18.113281,-0.535341 -12.670375,5.442909 -15.436425,0.26775 -11.477386,4.388276 0.05607,0.162344 -0.124906,2.098215 12.081559,-5.845912 15.793373,0.26775 11.956652,-5.97824 18.737811,0.802923 10.082888,-5.621294 9.2822129,1.473341 -0.3595356,-0.938009 -0.00846,-0.615731 z"
       style="fill:#b3b3b3;fill-opacity:1;stroke-width:0.883314;stroke-linecap:round;stroke-linejoin:round"
       id="path943" />
    <path
       transform="matrix(0.26458333,0,0,0.26458333,-168.66205,-189.03319)"
       d="M 279.86328 191.64062 C 224.70747 211.06726 188.08789 229.10156 188.08789 229.10156 L 185.67383 237.11914 L 230.42188 484.6543 L 311.16406 501.5 L 279.86328 191.64062 z "
       style="fill:#6f6f6f;fill-opacity:0.67353994;stroke-width:9.99999;stroke-linecap:round;stroke-linejoin:round"
       id="path965" />
    <path
       d="m 56.120857,-103.7627 c -17.76753,4.117911 -87.032317,19.916826 -99.302577,18.829588 -13.297594,-1.178267 -80.27333,-13.956759 -87.92439,-15.420898 l -1.92397,1.717804 -0.4163,4.273547 c 19.78803,3.804357 81.190707,15.521066 92.406006,16.567827 11.81512,1.102745 84.863349,-15.712237 101.850903,-19.675124 l -0.268784,-2.932874 z"
       style="fill:#636363;fill-opacity:1;stroke-width:0.883314;stroke-linecap:round;stroke-linejoin:round"
       id="path974" />
    <path
       d="m 53.1207,-111.02779 c -25.564726,3.38922 -88.654447,11.685532 -95.295754,11.886784 -7.262142,0.220065 -67.072206,-8.574394 -82.275326,-10.830944 l -1.50336,4.99383 c 23.13318,3.56121 83.106681,12.699978 90.845197,12.903624 7.61007,0.200265 65.781405,-9.113434 89.534029,-12.976774 l -0.193057,-0.14665 c 0,0 -0.431737,-2.46211 -1.111729,-5.82987 z"
       style="fill:#636363;fill-opacity:1;stroke-width:0.883314;stroke-linecap:round;stroke-linejoin:round"
       id="path891" />
    <path
       d="m -137.86588,-48.988625 -6.52117,66.949831 9.65607,0.124044 c 0.34583,-13.6100188 -0.25029,-34.664042 -3.1349,-67.073875 z"
       style="fill:#515151;fill-opacity:1;stroke-width:0.883314;stroke-linecap:round;stroke-linejoin:round"
       id="path993" />
    <path
       d="m 63.181846,-71.601457 c -3.892949,42.939596 -3.71126,72.45599368 -2.220527,92.201395 l 10.684988,0.137329 z"
       style="fill:#656565;fill-opacity:1;stroke-width:0.883314;stroke-linecap:round;stroke-linejoin:round"
       id="path1017" />
    <path
       id="path1114"
       d="m -45.533986,-169.23008 -1.807619,31.23618 c 0,0 4.641725,-0.41802 8.392705,-2.1196 3.750981,-1.70157 6.302579,-4.46833 6.302579,-4.46833 z"
       style="fill:#e6e6e6;fill-opacity:1;stroke-width:2.90832;stroke-linecap:round;stroke-linejoin:round" />
    <path
       style="fill:#ded1a2;fill-opacity:1;stroke-width:2.90832;stroke-linecap:round;stroke-linejoin:round"
       d="m -45.533986,-169.23008 -1.807619,31.23618 c 0,0 4.641725,-0.41802 8.392705,-2.1196 3.750981,-1.70157 6.302579,-4.46833 6.302579,-4.46833 z"
       id="path1116" />
    <path
       id="path1124"
       d="m -60.117766,-148.00503 8.131921,31.88968 c 0,0 4.520246,-1.89676 7.738895,-4.79672 3.218655,-2.89995 4.895827,-6.48593 4.895827,-6.48593 z"
       style="fill:#e8dfbe;fill-opacity:1;stroke-width:3.05907;stroke-linecap:round;stroke-linejoin:round" />
    <path
       id="path919"
       style="fill:#7d4823;fill-opacity:1;stroke-width:9.99999;stroke-linecap:round;stroke-linejoin:round"
       d="M 811.11719 832.58203 L 615.39453 852.21289 L 621.06641 938 L 711.68359 923.69141 L 713.93555 899.19336 L 736.48242 918.92188 L 827.09961 902.70703 C 827.09961 902.70703 820.50777 868.68407 811.11719 832.58203 z M 612.37305 852.51562 L 316.86719 882.15234 L 338.72266 996.18555 L 436.01758 992.36914 L 434.52539 981.74609 L 517.0957 977.10742 L 513.2793 869.32031 L 525.67969 988.55273 L 607.71289 983.78516 L 612.37305 852.51562 z M 316.82031 882.15625 L 201.94336 893.67773 L 226.16797 1000 L 326.32422 997.13867 L 316.82031 882.15625 z "
       transform="matrix(0.26458333,0,0,0.26458333,-168.66205,-189.03319)" />
    <path
       id="path914"
       style="fill:#724120;fill-opacity:1;stroke-width:9.99999;stroke-linecap:round;stroke-linejoin:round"
       d="M 817.82812 859.85156 L 617.74414 887.75 L 621.06641 938 L 711.68359 923.69141 L 713.93555 899.19336 L 736.48242 918.92188 L 827.09961 902.70703 C 827.09961 902.70703 823.4808 884.07616 817.82812 859.85156 z M 611.08984 888.67773 L 516.66211 901.84375 L 525.67969 988.55273 L 607.71289 983.78516 L 611.08984 888.67773 z M 514.44141 902.1543 L 325.74414 928.4668 L 338.72266 996.18555 L 436.01758 992.36914 L 434.52539 981.74609 L 517.0957 977.10742 L 514.44141 902.1543 z M 320.70703 929.16797 L 213.4375 944.125 L 226.16797 1000 L 326.32422 997.13867 L 320.70703 929.16797 z "
       transform="matrix(0.26458333,0,0,0.26458333,-168.66205,-189.03319)" />
    <path
       style="fill:#686868;fill-opacity:1;stroke-width:2.64583;stroke-linecap:round;stroke-linejoin:round"
       d="m -72.177751,-80.789033 c 0,0 26.994222,6.949009 45.970358,3.474503 18.9761363,-3.474503 25.92514234,-6.949006 22.4506393,-4.543581 -3.474503,2.405425 -27.2614913,11.225321 -40.0904283,9.354434 -12.828936,-1.870888 -42.495856,-6.949009 -35.279578,-7.750816 7.216277,-0.801809 6.949009,-0.53454 6.949009,-0.53454 z"
       id="path930" />
    <path
       style="fill:#686868;fill-opacity:1;stroke-width:2.64583;stroke-linecap:round;stroke-linejoin:round"
       d="m -60.417893,-58.071122 4.276312,35.814116 9.354434,0.801809 4.810852,-34.2105 z"
       id="path932" />
    <path
       id="path969-9"
       style="display:inline;fill:#595959;fill-opacity:1;stroke-width:11.5618;stroke-linecap:round;stroke-linejoin:round"
       d="M 133.98633 348.68945 L 129.63477 393.36719 L 140.61523 418.12109 C 140.61523 418.12109 157.6983 410.95267 169.86328 399.99219 C 182.02826 389.03175 188.36719 375.47852 188.36719 375.47852 L 133.98633 348.68945 z "
       transform="matrix(0.26458333,0,0,0.26458333,-168.66205,-189.03319)" />
    <path
       id="path979"
       style="fill:#787878;fill-opacity:1;stroke-width:3.33851;stroke-linecap:round;stroke-linejoin:round"
       d="M 839.2793 300.05664 L 839.26758 300.05859 C 839.37631 300.61188 839.49766 301.20915 839.60156 301.74219 C 839.47326 301.08271 839.41497 300.74698 839.2793 300.05664 z M 841.4668 311.53516 C 842.00587 314.46013 842.43555 316.85742 842.43555 316.85742 C 842.43555 316.85742 842.06845 314.78958 841.4668 311.53516 z M 843.16602 317.41211 C 753.39232 332.01371 533.532 367.21589 504.76953 366.45898 C 475.5216 365.6893 248.85046 331.14719 161.41797 317.6875 L 161.38086 317.81055 L 141.94336 335.16602 C 170.86075 340.69977 423.99724 388.99593 474.25586 393.44922 C 520.63165 397.55846 782.4194 337.84501 849.57227 322.28125 L 843.16602 317.41211 z "
       transform="matrix(0.26458333,0,0,0.26458333,-168.66205,-189.03319)" />
    <path
       style="display:inline;fill:#ddcf9d;fill-opacity:1;stroke-width:3.05906;stroke-linecap:round;stroke-linejoin:round"
       d="m -139.58976,-110.29499 8.13192,31.889676 c 0,0 4.52025,-1.89676 7.7389,-4.79672 3.21865,-2.89995 4.89582,-6.48593 4.89582,-6.48593 z"
       id="path1124-3" />
    <path
       style="display:inline;fill:#595959;fill-opacity:0.67353952;stroke-width:3.05906;stroke-linecap:round;stroke-linejoin:round"
       d="m 40.471091,-101.61188 12.086383,11.301202 9.547322,13.973897 c 0,0 -4.52024,-1.89676 -7.73889,-4.79673 -3.21866,-2.89994 -4.89583,-6.48593 -4.89583,-6.48593 z"
       id="path1039"
       sodipodi:nodetypes="cccscc" />
    <path
       sodipodi:nodetypes="cccsccc"
       id="path1092"
       d="m 48.875297,-87.467431 -1.104821,-1.885072 2.145932,-0.794287 c 0,0 0.736319,0.836707 0.819,1.043416 0.08268,0.206706 0.338998,0.463021 0.338998,0.463021 l -0.405144,2.124935 z"
       style="opacity:1;fill:#666666;fill-opacity:1;stroke-width:2.64583;stroke-linecap:round;stroke-linejoin:round" />
    <path
       id="path1154-1"
       d="m 70.236716,-108.22646 -8.13192,31.889679 c 0,0 -4.52024,-1.89676 -7.73889,-4.79673 -3.21866,-2.89994 -4.89583,-6.48593 -4.89583,-6.48593 z"
       style="display:inline;fill:#e8dfbe;fill-opacity:1;stroke-width:3.05906;stroke-linecap:round;stroke-linejoin:round" />
    <path
       sodipodi:nodetypes="csssssssssssc"
       id="path1018"
       d="m 48.221867,-87.846603 c 0,0 2.193767,-1.298495 2.317455,-1.042284 0.115755,0.239779 0.185811,0.405192 0.303573,0.628873 0.423285,0.804002 0.999702,1.523005 1.5875,2.215885 0.84721,0.998669 1.781316,1.928726 2.778125,2.778125 1.346134,1.147065 2.742156,2.270656 4.299479,3.108854 1.076599,0.579458 3.18582,1.32788 3.339919,1.660983 0.185122,0.400164 -0.305148,2.911815 -0.727158,2.770788 -0.383349,-0.128107 -2.401877,-1.03705 -3.571875,-1.620573 -1.236132,-0.616507 -2.511252,-1.185316 -3.638021,-1.984375 -0.872282,-0.618587 -1.632415,-1.386344 -2.38125,-2.149739 -1.16561,-1.188274 -2.401443,-2.352955 -3.274219,-3.770313 -0.518474,-0.841983 -1.033528,-2.596224 -1.033528,-2.596224 z"
       style="opacity:1;fill:#505050;fill-opacity:1;stroke-width:2.64583;stroke-linecap:round;stroke-linejoin:round" />
    <path
       style="display:inline;opacity:1;fill:#343434;fill-opacity:1;stroke-width:2.64583;stroke-linecap:round;stroke-linejoin:round"
       d="m -117.57491,-89.915139 c 0,0 -2.19377,-1.2985 -2.31746,-1.04229 -0.11575,0.23978 -0.18581,0.4052 -0.30357,0.62888 -0.42328,0.804 -0.9997,1.523 -1.5875,2.21588 -0.84721,0.99867 -1.78131,1.92873 -2.77812,2.77813 -1.34614,1.14706 -2.74216,2.27065 -4.29948,3.10885 -1.0766,0.57946 -3.18582,1.32788 -3.33992,1.66098 -0.18512,0.40017 0.30515,2.91182 0.72716,2.77079 0.38335,-0.12811 2.40187,-1.03705 3.57187,-1.62057 1.23613,-0.61651 2.51125,-1.18532 3.63802,-1.98438 0.87228,-0.61858 1.63242,-1.38634 2.38125,-2.14974 1.16561,-1.18827 2.40145,-2.35295 3.27422,-3.77031 0.51848,-0.84198 1.03353,-2.59622 1.03353,-2.59622 z"
       id="path1018-4"
       sodipodi:nodetypes="csssssssssssc" />
    <path
       style="display:inline;opacity:1;fill:#454545;fill-opacity:1;stroke-width:2.64583;stroke-linecap:round;stroke-linejoin:round"
       d="m -38.102913,-127.62516 c 0,0 -2.19377,-1.2985 -2.31746,-1.04229 -0.11575,0.23978 -0.18581,0.4052 -0.30357,0.62888 -0.42328,0.804 -0.9997,1.523 -1.5875,2.21588 -0.84721,0.99867 -1.78131,1.92873 -2.77812,2.77813 -1.34614,1.14706 -2.74216,2.27065 -4.29948,3.10885 -1.0766,0.57946 -3.18582,1.32788 -3.33992,1.66098 -0.18512,0.40017 0.30515,2.91182 0.72716,2.77079 0.38335,-0.12811 2.40187,-1.03705 3.57187,-1.62057 1.23613,-0.61651 2.51125,-1.18532 3.63802,-1.98438 0.87228,-0.61858 1.63242,-1.38634 2.38125,-2.14974 1.16561,-1.18827 2.40145,-2.35295 3.27422,-3.77031 0.51848,-0.84198 1.03353,-2.59622 1.03353,-2.59622 z"
       id="path1018-40"
       sodipodi:nodetypes="csssssssssssc" />
    <path
       sodipodi:nodetypes="csssssssssssc"
       id="path1018-40-0"
       d="m -31.061448,-143.63779 c 0,0 -1.683184,-1.91458 -1.880204,-1.70934 -0.184376,0.1921 -0.302264,0.32764 -0.483562,0.5038 -0.65166,0.63319 -1.422568,1.13809 -2.196198,1.61462 -1.115055,0.68685 -2.29145,1.28153 -3.502462,1.78009 -1.635406,0.67327 -3.310958,1.30876 -5.051398,1.62292 -1.203196,0.21716 -3.440512,0.27494 -3.690282,0.54382 -0.300049,0.32307 -0.612515,2.86298 -0.167577,2.85971 0.404183,-0.003 2.605028,-0.24143 3.898282,-0.43348 1.366348,-0.20298 2.754986,-0.34844 4.073948,-0.75888 1.021064,-0.31771 1.981758,-0.81201 2.930346,-1.30569 1.476545,-0.7684 3.012546,-1.49261 4.28169,-2.5696 0.753944,-0.63978 1.787419,-2.14795 1.787419,-2.14795 z"
       style="display:inline;opacity:1;fill:#343434;fill-opacity:1;stroke-width:2.64583;stroke-linecap:round;stroke-linejoin:round" />
  </g>
</svg>
